<?xml version="1.0" encoding="iso-8859-1"?>
<!-- Uploaded to: SVG Repo, www.svgrepo.com, Generator: SVG Repo Mixer Tools -->
<!DOCTYPE svg PUBLIC "-//W3C//DTD SVG 1.1//EN" "http://www.w3.org/Graphics/SVG/1.1/DTD/svg11.dtd">
<svg fill="#000000" height="800px" width="800px" version="1.1" id="Capa_1" xmlns="http://www.w3.org/2000/svg" xmlns:xlink="http://www.w3.org/1999/xlink" 
	 viewBox="0 0 60 60" xml:space="preserve">
<g>
	<path d="M58.5,54h-2.45c-0.744-10.782-2.447-20.928-4.958-29.419c2.471-3.738,6.915-6.718,6.961-6.748
		c0.367-0.244,0.532-0.7,0.404-1.122C58.33,16.289,57.941,16,57.5,16h-9.456c-0.146-0.343-0.297-0.667-0.446-1H16.393
		c-0.296,0.661-0.586,1.342-0.871,2.044C15.161,17.015,14.827,17,14.5,17c-7.72,0-14,6.28-14,14c0,5.578,3.364,10.639,8.451,12.84
		C8.514,47.159,8.187,50.571,7.949,54H5.5c-0.553,0-1,0.447-1,1v4c0,0.553,0.447,1,1,1h53c0.553,0,1-0.447,1-1v-4
		C59.5,54.447,59.053,54,58.5,54z M22.5,23c0-2.757,2.243-5,5-5s5,2.243,5,5v1h-4c-0.553,0-1,0.447-1,1s0.447,1,1,1h4v2h-4
		c-0.553,0-1,0.447-1,1s0.447,1,1,1h4v2h-4c-0.553,0-1,0.447-1,1s0.447,1,1,1h4v2h-4c-0.553,0-1,0.447-1,1s0.447,1,1,1h4v2h-4
		c-0.553,0-1,0.447-1,1s0.447,1,1,1h4v2h-4c-0.553,0-1,0.447-1,1s0.447,1,1,1h4v1c0,2.757-2.243,5-5,5s-5-2.243-5-5V23z M4.5,31
		c0-5.514,4.486-10,10-10c0.075,0,0.149,0.005,0.224,0.01c0.315,0.011,0.644,0.171,0.824,0.43c0.18,0.259,0.265,0.59,0.165,0.89
		c-1.671,5.03-3.039,10.738-4.068,16.964c-0.051,0.31-0.244,0.577-0.522,0.723c-0.146,0.076-0.305,0.114-0.464,0.114
		c-0.146,0-0.292-0.032-0.428-0.097C6.749,38.386,4.5,34.839,4.5,31z"/>
	<path d="M32,0c-5.375,0-10.488,4.576-14.663,13h29.319C42.479,4.59,37.354,0,32,0z"/>
</g>
</svg>