<?xml version="1.0" encoding="iso-8859-1"?>
<!-- Uploaded to: SVG Repo, www.svgrepo.com, Generator: SVG Repo Mixer Tools -->
<svg fill="#000000" version="1.1" id="Layer_1" xmlns="http://www.w3.org/2000/svg" xmlns:xlink="http://www.w3.org/1999/xlink" 
	 viewBox="0 0 512.003 512.003" xml:space="preserve">
<g>
	<g>
		<rect x="55.694" y="465.484" width="400.614" height="46.519"/>
	</g>
</g>
<g>
	<g>
		<path d="M29.07,155.202v279.861h453.863V155.202H29.07z M414.455,226.107H97.548V195.69h316.906V226.107z"/>
	</g>
</g>
<g>
	<g>
		<path d="M29.07,0v124.784h453.863V0H29.07z M127.965,84.297H97.548v-43.81h30.417V84.297z M178.661,84.297h-30.417v-43.81h30.417
			V84.297z M224.935,83.32c-11.558,0-20.927-9.369-20.927-20.927c0-11.557,9.369-20.927,20.927-20.927
			c11.557,0,20.927,9.37,20.927,20.927S236.493,83.32,224.935,83.32z M287.068,83.32c-11.557,0-20.927-9.369-20.927-20.927
			c0-11.557,9.369-20.927,20.927-20.927s20.927,9.37,20.927,20.927S298.625,83.32,287.068,83.32z M363.759,84.297h-30.417v-43.81
			h30.417V84.297z M414.455,84.297h-30.417v-43.81h30.417V84.297z"/>
	</g>
</g>
</svg>