<?xml version="1.0" standalone="no"?>
<!DOCTYPE svg PUBLIC "-//W3C//DTD SVG 20010904//EN"
 "http://www.w3.org/TR/2001/REC-SVG-20010904/DTD/svg10.dtd">
<svg version="1.0" xmlns="http://www.w3.org/2000/svg"
 width="1999.000000pt" height="1999.000000pt" viewBox="0 0 1999.000000 1999.000000"
 preserveAspectRatio="xMidYMid meet">
<metadata>
Created by potrace 1.14, written by Peter Selinger 2001-2017
</metadata>
<g transform="translate(0.000000,1999.000000) scale(0.100000,-0.100000)"
fill="#000000" stroke="none">
<path d="M10500 15399 c-19 -6 -88 -35 -153 -67 l-119 -57 -20 28 c-36 50 -92
70 -198 73 -52 1 -117 -2 -145 -6 -48 -8 -94 -12 -290 -26 -49 -3 -97 -8 -105
-9 -8 -1 -35 -6 -60 -10 -120 -19 -235 -67 -298 -126 l-34 -32 -54 61 c-31 34
-63 64 -74 67 -21 7 -205 -40 -480 -122 -102 -30 -192 -56 -200 -58 -8 -2 -73
-20 -144 -40 -71 -20 -137 -38 -147 -40 -64 -12 -215 -58 -246 -74 -83 -42
-115 -98 -138 -237 -8 -47 -15 -88 -17 -89 -2 -2 -14 13 -28 33 -44 68 -98
117 -137 124 -5 1 -23 5 -41 9 -35 7 -87 -8 -114 -33 -29 -29 -107 -86 -178
-133 -41 -28 -76 -53 -78 -57 -2 -5 -7 -8 -12 -8 -15 0 -275 -162 -350 -218
-89 -66 -194 -169 -237 -232 -38 -57 -53 -107 -53 -187 0 -110 -16 -117 -104
-48 -61 47 -80 53 -107 32 -8 -7 -69 -86 -134 -177 -157 -218 -247 -330 -333
-415 -60 -59 -72 -77 -78 -112 -7 -45 20 -150 57 -227 10 -22 19 -43 19 -47 0
-5 -119 -9 -264 -11 -249 -3 -266 -4 -292 -24 -95 -70 -92 -198 6 -253 l40
-22 4834 0 c4831 0 4835 0 4874 20 79 40 102 141 50 217 -36 53 -77 64 -243
64 -79 0 -146 4 -149 9 -7 10 -26 131 -30 188 -1 23 -7 48 -13 55 -6 7 -25 44
-44 82 -35 73 -138 187 -259 287 -79 65 -198 183 -225 223 -52 76 -142 174
-188 206 -47 31 -58 34 -122 34 -60 0 -81 -5 -149 -37 -43 -20 -80 -37 -82
-37 -2 0 4 19 13 43 8 23 17 73 19 112 2 60 -1 76 -24 118 -33 62 -105 127
-216 197 -129 82 -177 119 -279 216 -238 228 -378 329 -514 375 -104 34 -168
29 -298 -24 -60 -25 -137 -50 -170 -56 -176 -31 -288 47 -339 234 -21 76 -31
96 -61 118 -46 33 -127 47 -360 62 -266 17 -393 32 -530 65 -49 12 -109 11
-155 -1z m-125 -563 c60 -4 118 -9 130 -11 11 -2 48 -7 82 -10 209 -19 521
-86 768 -165 55 -18 101 -33 103 -35 6 -5 -58 -135 -67 -135 -5 0 -52 11 -103
25 -51 14 -118 29 -148 35 -30 6 -64 12 -75 14 -11 2 -40 7 -65 10 -25 3 -54
8 -65 10 -11 2 -51 7 -90 10 -38 4 -86 9 -105 11 -44 5 -201 17 -255 20 -165
9 -376 18 -460 20 -55 1 -103 3 -106 4 -4 0 -5 29 -2 64 3 34 5 78 6 97 2 34
3 35 52 40 62 6 254 4 400 -4z m-654 -11 c0 0 3 -38 5 -85 3 -47 7 -91 9 -97
3 -8 -5 -13 -18 -14 -103 -3 -321 -22 -392 -34 -16 -2 -48 -7 -70 -10 -84 -12
-254 -48 -340 -72 -214 -59 -676 -224 -890 -318 -152 -67 -226 -101 -325 -148
-63 -31 -116 -52 -118 -47 -2 5 -28 46 -58 92 l-54 83 38 23 c154 95 470 232
737 321 212 70 624 175 800 204 17 3 91 17 165 30 156 29 181 33 350 56 103
13 156 19 161 16z m2002 -311 c148 -62 382 -178 512 -253 44 -25 88 -50 97
-56 144 -84 403 -248 587 -374 89 -60 311 -218 331 -235 15 -11 38 -30 53 -41
l28 -20 -53 -47 -52 -46 -58 53 c-154 143 -293 226 -618 371 -148 66 -323 158
-445 235 -304 191 -512 309 -545 309 -10 0 29 64 69 113 18 22 20 22 94 -9z
m-1989 5 c3 -3 7 -31 9 -62 4 -65 7 -63 -94 -72 -36 -3 -76 -8 -90 -10 -13 -2
-53 -9 -89 -15 -361 -57 -739 -177 -1255 -397 -71 -31 -161 -70 -200 -87 -38
-18 -85 -38 -104 -46 -19 -8 -64 -29 -99 -47 -36 -18 -66 -32 -67 -31 -4 5
-81 123 -88 135 -15 24 409 214 778 348 132 48 468 164 495 170 8 2 47 13 85
23 168 46 346 75 531 88 55 3 100 7 101 8 5 4 82 0 87 -5z m591 -4 c190 -13
233 -16 275 -20 25 -2 77 -7 115 -10 92 -7 186 -16 207 -20 9 -2 38 -7 65 -11
72 -10 78 -11 216 -46 71 -17 131 -37 133 -43 4 -10 -53 -145 -61 -145 -2 0
-25 10 -52 21 -378 166 -608 200 -1161 175 l-163 -7 2 53 c1 29 4 56 6 61 4 7
269 2 418 -8z m1352 -284 c54 -27 211 -120 348 -206 183 -115 323 -193 520
-290 273 -135 433 -231 537 -323 l57 -50 -67 -64 c-37 -34 -75 -69 -83 -76
-14 -10 -28 -2 -95 50 -43 34 -93 75 -110 90 -108 99 -313 222 -654 396 -213
109 -732 391 -748 407 -4 4 56 94 69 105 3 3 11 15 18 27 l11 23 50 -20 c27
-11 93 -42 147 -69z m-1107 65 c263 -27 434 -72 612 -162 l46 -24 -25 -52
c-14 -29 -39 -82 -55 -118 -17 -36 -31 -66 -33 -68 -1 -2 -67 30 -146 71 -141
71 -289 138 -339 152 -14 3 -34 10 -45 15 -11 5 -58 19 -105 31 -96 25 -349
35 -455 18 -33 -5 -79 -11 -103 -15 l-43 -5 6 73 c4 40 8 75 10 78 2 3 43 6
92 8 48 2 89 5 90 6 5 5 433 -2 493 -8z m-819 -23 c12 -169 12 -160 -13 -166
-13 -2 -93 -21 -178 -41 -129 -31 -312 -64 -490 -90 -19 -3 -82 -15 -140 -26
-58 -12 -121 -24 -140 -27 -58 -9 -166 -52 -278 -110 -169 -88 -386 -214 -519
-299 -28 -19 -56 -34 -61 -34 -6 0 -35 39 -67 87 l-56 88 113 55 c633 311
1223 503 1713 557 28 3 52 7 54 9 8 7 61 4 62 -3z m1774 -323 c94 -54 231
-129 305 -167 74 -39 205 -107 290 -151 85 -44 184 -97 220 -117 36 -21 85
-49 110 -63 115 -64 294 -193 402 -288 l36 -32 -27 -26 c-31 -30 -44 -32 -61
-11 -17 21 -189 133 -289 190 -172 97 -407 193 -693 285 -90 28 -208 68 -263
88 -116 42 -395 178 -395 192 0 6 23 43 52 83 105 146 97 138 121 126 12 -7
99 -56 192 -109z m-4162 34 c31 -36 57 -70 57 -75 0 -4 -15 -16 -32 -25 -108
-55 -317 -191 -438 -285 -127 -97 -400 -374 -530 -536 l-105 -132 -128 0 -128
-1 22 31 c156 219 365 447 579 630 103 89 288 231 370 285 41 27 77 51 80 54
3 3 34 23 70 44 36 22 76 48 89 58 13 10 27 18 30 18 4 0 33 -30 64 -66z
m3043 34 c5 -3 27 -9 48 -12 113 -18 264 -78 424 -169 59 -33 121 -66 139 -73
37 -16 39 -22 18 -67 l-16 -32 25 30 c14 17 26 33 26 38 0 4 18 -2 40 -13 54
-27 319 -136 395 -161 33 -12 87 -31 120 -43 33 -13 112 -42 175 -66 119 -43
223 -83 275 -105 17 -7 59 -25 94 -40 183 -76 389 -191 533 -298 l28 -21 -22
-23 c-25 -27 -13 -31 21 -7 22 16 24 15 44 -4 l20 -21 -195 -1 c-192 0 -197 0
-225 23 -58 49 -253 178 -377 250 -264 155 -702 355 -981 448 -68 23 -257 76
-295 83 -14 2 -56 11 -95 19 -38 8 -95 18 -125 22 -30 4 -64 9 -75 11 -57 11
-210 19 -378 19 l-188 0 5 94 c3 52 7 96 9 98 7 6 47 13 117 19 36 4 67 8 68
9 7 6 338 -1 348 -7z m-635 -85 c1 -27 3 -67 5 -90 3 -39 2 -42 -27 -48 -17
-4 -51 -9 -77 -11 -26 -2 -58 -6 -72 -9 -27 -5 -60 -10 -127 -20 -52 -7 -309
-70 -378 -91 -275 -88 -488 -174 -728 -295 -119 -60 -156 -80 -233 -125 l-41
-24 -47 71 c-26 40 -45 76 -44 80 2 5 28 25 59 46 32 21 123 84 204 141 81 57
153 101 160 98 8 -3 24 3 37 12 13 9 33 22 44 29 30 16 262 108 299 118 17 5
37 10 45 13 8 2 36 5 62 6 26 1 53 7 60 13 15 13 26 15 273 48 105 14 258 38
340 54 200 39 185 40 186 -16z m-2209 -184 l57 -70 -106 -71 c-98 -66 -305
-226 -380 -294 -17 -16 -59 -54 -93 -84 -35 -30 -68 -60 -74 -65 -6 -6 -56
-50 -111 -100 -55 -49 -111 -99 -125 -112 -23 -21 -33 -23 -149 -23 -141 0
-137 -12 -37 105 169 200 476 480 662 606 86 57 286 179 294 178 3 0 31 -32
62 -70z m2753 -72 c17 -3 57 -8 90 -12 445 -46 1173 -339 1662 -668 l93 -62
-161 -3 -160 -3 -187 124 c-182 120 -350 227 -357 227 -2 0 -26 13 -52 28 -42
24 -86 45 -208 97 -88 38 -255 77 -395 93 -87 9 -490 9 -668 -2 -122 -7 -141
-6 -137 7 5 12 10 62 14 154 1 18 8 22 39 25 56 5 392 1 427 -5z m-528 -30 c4
-110 5 -158 2 -161 -2 -2 -51 -6 -109 -10 -302 -20 -597 -89 -862 -202 -87
-37 -426 -210 -515 -262 l-53 -31 -40 59 c-22 32 -40 63 -40 68 0 5 12 15 28
23 15 7 51 29 79 47 87 54 310 167 436 221 304 130 683 232 992 267 27 3 51 7
53 9 10 10 28 -8 29 -28z m-2013 -151 l65 -80 -169 -112 c-141 -93 -211 -143
-365 -261 -6 -4 -38 -32 -72 -60 l-61 -53 -149 0 -148 0 50 46 c28 24 66 59
85 76 19 17 55 49 80 72 226 208 589 480 612 458 3 -4 36 -43 72 -86z m5755
-143 c113 -117 172 -193 247 -320 30 -50 54 -94 54 -97 0 -3 -45 -6 -99 -6
l-100 0 -46 58 c-25 31 -52 64 -58 72 -7 8 -26 33 -42 55 -17 22 -34 45 -40
52 -5 6 -20 24 -32 40 -12 15 -37 48 -56 73 l-35 45 67 42 c36 23 70 43 75 43
5 0 34 -26 65 -57z m-2939 34 c8 -3 44 -8 80 -11 36 -3 76 -8 90 -11 14 -3 43
-7 66 -10 159 -19 401 -130 660 -304 l173 -116 -150 -3 -149 -3 -115 56 c-314
150 -687 246 -1055 270 -19 2 -110 3 -202 4 l-167 1 4 56 c3 32 7 59 9 62 3 2
42 6 88 9 46 3 84 7 86 8 6 6 567 -2 582 -8z m-789 -36 c5 -101 6 -95 -26 -98
-35 -2 -207 -22 -250 -29 -229 -36 -557 -141 -829 -263 -66 -30 -74 -31 -185
-29 l-116 3 191 97 c337 172 547 248 830 302 12 2 45 7 75 11 30 3 65 8 79 10
14 2 57 7 95 10 39 4 71 7 72 8 1 1 15 3 32 3 27 1 31 -2 32 -25z m-1822 -99
c49 -59 53 -67 37 -76 -10 -6 -99 -64 -197 -129 l-180 -118 -145 3 -145 3 96
70 c53 39 102 75 109 82 29 26 349 233 360 232 6 0 35 -30 65 -67z m5278 -24
c34 -37 223 -284 223 -293 0 -3 -30 -5 -66 -5 l-66 0 -149 111 -148 112 23 18
c13 11 26 19 29 19 3 0 29 16 58 35 30 19 56 35 59 35 3 0 20 -15 37 -32z
m-3102 -102 c50 -4 101 -9 115 -11 14 -2 45 -7 70 -10 210 -28 476 -91 650
-154 l55 -20 -1054 0 c-580 -1 -1052 1 -1050 3 2 2 54 22 114 45 134 50 248
83 380 110 97 20 120 23 255 37 36 3 66 7 67 8 5 4 322 -2 398 -8z m2813 -61
c15 -14 55 -49 89 -78 l62 -52 -69 -3 -70 -3 -57 56 c-46 45 -55 58 -43 65 8
5 24 16 35 24 25 20 21 20 53 -9z m-4795 -46 l46 -56 -32 -17 c-26 -14 -55
-17 -166 -14 l-135 3 80 51 c118 76 148 94 155 91 4 -1 27 -27 52 -58z"/>
<path d="M5844 12103 c24 -87 52 -187 96 -353 51 -190 80 -299 100 -370 6 -19
40 -143 75 -275 36 -132 75 -277 87 -322 l23 -83 87 0 86 0 11 33 c5 17 30 97
55 177 80 260 258 844 270 890 7 24 15 40 18 34 4 -5 20 -57 37 -115 27 -95
69 -240 165 -564 19 -66 57 -194 84 -285 l48 -165 88 0 89 0 27 100 c26 96 95
350 146 540 14 50 27 97 29 105 18 68 69 257 95 355 17 66 42 158 56 205 13
46 24 90 24 97 0 10 -23 13 -90 13 l-89 0 -11 -37 c-6 -21 -17 -65 -24 -98 -8
-33 -29 -116 -46 -185 -17 -69 -33 -133 -35 -144 -3 -10 -27 -109 -54 -220
-27 -110 -61 -249 -76 -308 -14 -59 -29 -117 -34 -130 -8 -21 -9 -20 -20 13
-6 20 -13 45 -15 55 -2 10 -11 39 -20 64 -8 25 -22 70 -30 100 -8 30 -33 118
-56 195 -23 77 -44 149 -47 160 -3 11 -19 64 -35 119 -16 54 -31 106 -33 115
-2 9 -22 79 -44 156 -23 77 -41 141 -41 142 0 2 -40 3 -88 3 l-89 0 -36 -117
c-19 -65 -52 -172 -72 -238 -21 -66 -41 -133 -45 -150 -5 -16 -38 -127 -74
-245 -36 -118 -78 -255 -93 -303 -32 -106 -32 -105 -68 53 -2 8 -49 197 -104
420 -56 223 -111 444 -123 493 l-22 87 -94 0 c-84 0 -93 -2 -88 -17z"/>
<path d="M8508 12113 c-2 -5 -4 -323 -3 -708 l0 -700 83 -3 82 -3 1 351 c0
192 0 406 0 475 0 69 0 231 0 360 l-1 235 -79 0 c-44 0 -81 -3 -83 -7z"/>
<path d="M9658 12113 c-3 -7 -2 -1384 1 -1405 1 -5 178 -8 394 -8 l393 0 0 80
1 80 -312 0 -312 0 -1 613 c0 336 -1 620 -1 630 -1 15 -12 17 -80 17 -44 0
-81 -3 -83 -7z"/>
<path d="M11339 12118 c-1 -2 -3 -321 -4 -710 l-2 -708 394 0 c216 0 393 3
394 8 0 4 1 39 2 77 l1 70 -312 3 -312 2 0 630 0 630 -80 0 c-44 0 -81 -1 -81
-2z"/>
<path d="M13411 12098 c-55 -144 -164 -434 -226 -598 -42 -113 -81 -214 -86
-225 -5 -11 -46 -121 -93 -245 -46 -124 -93 -249 -105 -277 l-21 -53 93 0 94
0 70 193 70 192 312 3 c222 2 311 -1 311 -9 0 -6 30 -94 67 -195 l67 -184 93
0 92 0 -25 68 c-56 149 -216 569 -229 602 -8 19 -61 159 -119 310 -57 151
-118 312 -136 358 l-31 82 -95 0 c-89 0 -95 -1 -103 -22z m161 -328 c119 -321
176 -477 182 -497 l7 -23 -245 0 c-135 0 -246 2 -246 5 0 2 36 101 80 219 44
118 80 218 80 222 0 3 6 20 14 37 7 18 21 52 29 77 33 92 38 103 45 94 5 -5
29 -65 54 -134z"/>
<path d="M6346 10324 c-86 -124 -159 -231 -162 -238 -4 -11 30 -14 173 -14
l177 0 193 155 c106 85 193 158 193 161 0 4 -19 15 -43 24 -118 46 -361 138
-367 138 -3 0 -77 -102 -164 -226z"/>
<path d="M2327 10004 c-1 -1 -38 -4 -82 -8 -119 -9 -152 -15 -247 -46 -242
-77 -391 -228 -466 -471 -11 -36 -23 -88 -27 -115 -4 -27 -9 -60 -11 -74 -6
-34 -6 -273 0 -291 3 -8 7 -33 10 -56 16 -126 73 -267 147 -363 168 -219 486
-318 894 -277 335 33 576 218 665 511 31 102 42 183 43 316 3 283 -61 481
-202 631 -147 157 -351 233 -649 243 -40 1 -74 1 -75 0z m167 -438 c171 -47
254 -186 254 -424 0 -285 -142 -433 -402 -420 -193 10 -301 102 -340 290 -8
36 -12 106 -10 163 6 219 87 344 254 391 54 15 188 15 244 0z"/>
<path d="M6208 9989 c-268 -38 -415 -152 -468 -364 -20 -80 -22 -244 -4 -307
40 -138 134 -229 306 -297 69 -28 225 -74 288 -85 222 -38 264 -50 285 -79 30
-43 11 -108 -37 -128 -32 -13 -170 -17 -253 -6 -130 15 -264 53 -373 102 l-72
34 -49 -97 c-27 -53 -68 -133 -90 -177 l-41 -80 23 -17 c41 -32 151 -86 237
-116 75 -26 112 -36 220 -57 94 -19 338 -25 457 -13 290 32 450 172 489 428
10 71 7 215 -6 257 -56 182 -190 276 -495 348 -55 13 -125 26 -155 30 -30 4
-57 8 -60 10 -3 2 -25 6 -50 10 -55 8 -101 27 -118 48 -19 23 -17 84 3 107 58
64 344 38 569 -52 44 -17 81 -28 83 -22 2 5 46 83 97 173 93 164 94 165 72
181 -58 43 -164 88 -292 126 -82 24 -96 27 -214 43 -79 11 -274 11 -352 0z"/>
<path d="M7825 9980 c-97 -20 -144 -34 -211 -65 -213 -97 -344 -270 -400 -530
-18 -83 -24 -305 -11 -405 23 -177 78 -311 174 -428 41 -50 135 -122 205 -158
59 -30 180 -71 233 -78 23 -4 52 -9 65 -12 14 -3 84 -7 157 -8 301 -8 518 66
678 229 66 68 152 206 140 225 -3 4 -33 19 -67 33 -35 14 -124 51 -198 81 -74
31 -140 56 -145 56 -6 0 -19 -15 -30 -32 -27 -48 -98 -113 -150 -137 -61 -29
-134 -38 -228 -29 -175 17 -289 117 -326 288 -15 64 -7 265 12 325 52 163 178
246 365 240 98 -3 166 -23 229 -67 39 -26 106 -103 116 -131 2 -8 34 1 98 27
52 21 144 59 204 84 61 24 114 48 119 52 13 13 -41 111 -97 177 -122 142 -276
228 -482 267 -107 20 -343 18 -450 -4z"/>
<path d="M0 9148 l0 -828 250 0 250 0 0 225 0 225 168 1 c193 0 228 3 337 30
282 68 412 259 400 589 -5 132 -9 163 -37 245 -62 186 -177 276 -423 331 -16
3 -236 7 -487 9 l-458 2 0 -829z m787 409 c55 -17 100 -69 113 -132 22 -108
-9 -195 -84 -234 -41 -21 -63 -25 -181 -28 l-135 -4 0 206 0 206 126 -2 c69
-1 141 -6 161 -12z"/>
<path d="M3419 9971 c-1 -3 -2 -376 -3 -829 l-1 -823 445 4 c245 2 459 7 475
10 17 3 53 10 80 16 202 39 376 160 456 316 33 62 60 131 58 145 0 3 4 17 10
32 5 14 13 52 17 85 3 32 8 67 10 78 6 26 5 273 0 305 -3 14 -7 43 -11 65 -29
196 -127 367 -266 462 -86 59 -233 110 -374 129 -62 9 -894 13 -896 5z m794
-410 c180 -42 259 -182 252 -446 -4 -153 -46 -259 -129 -322 -62 -47 -139 -65
-286 -67 l-125 -1 -3 419 c-1 253 1 422 7 425 16 10 233 3 284 -8z"/>
<path d="M9002 9971 c-6 -4 -10 -335 -10 -828 l0 -823 252 0 251 0 0 828 0
828 -242 1 c-133 0 -246 -3 -251 -6z"/>
<path d="M9770 9148 l0 -828 410 0 c376 0 435 -4 401 -24 -15 -10 -34 -136
-28 -191 15 -145 120 -224 300 -223 115 0 258 40 281 77 4 5 -9 42 -27 83 -18
40 -42 92 -52 114 -17 40 -19 41 -49 33 -56 -16 -120 -11 -144 11 -26 24 -29
72 -6 94 21 21 43 26 144 28 l85 3 1 197 c1 139 -2 198 -10 200 -6 2 -189 4
-407 4 l-396 -1 0 111 0 111 351 1 c193 0 356 1 361 1 8 1 13 331 6 396 -1 6
-127 10 -359 9 l-358 0 -2 108 -1 108 407 2 407 3 1 201 1 201 -658 -1 -659 0
0 -828z"/>
<path d="M11176 9971 c-2 -3 -4 -95 -5 -203 l-1 -198 215 0 215 0 1 -22 c0
-13 0 -294 0 -625 l1 -603 251 0 252 0 0 625 0 625 211 0 c161 0 213 3 216 13
3 10 3 371 -1 388 -1 7 -1351 7 -1355 0z"/>
<path d="M12859 9745 c-56 -126 -114 -258 -130 -293 -16 -35 -29 -65 -29 -67
0 -2 -18 -42 -40 -89 -22 -47 -40 -88 -40 -90 0 -2 -16 -39 -36 -83 -20 -43
-47 -102 -60 -131 -13 -29 -24 -54 -24 -57 0 -2 -13 -32 -29 -67 -16 -35 -54
-119 -84 -188 -77 -177 -97 -223 -108 -243 -5 -10 -18 -40 -29 -67 l-20 -50
271 2 271 3 53 115 52 115 303 0 303 0 50 -110 c48 -107 49 -113 51 -215 1
-90 5 -113 27 -160 44 -93 125 -157 229 -180 58 -12 163 -12 219 1 60 13 151
58 151 73 0 7 -23 58 -50 113 l-51 100 -45 -12 c-40 -10 -59 -11 -120 -6 -22
2 -54 43 -54 69 1 58 45 83 157 91 l82 6 -130 295 c-71 162 -136 309 -143 325
-21 45 -58 129 -156 350 -48 110 -99 225 -113 255 -13 30 -61 138 -106 240
l-82 185 -219 0 -219 0 -102 -230z m377 -531 c25 -65 59 -154 75 -196 l28 -78
-159 0 -160 0 19 48 c11 26 46 118 78 204 32 86 61 154 66 149 4 -4 28 -61 53
-127z"/>
<path d="M14749 9977 c-1 -1 -2 -374 -3 -829 l-1 -828 647 0 648 0 0 203 0
202 -393 0 -392 0 -2 540 c-2 297 -3 579 -3 627 l0 87 -250 0 c-137 0 -251 -1
-251 -2z"/>
<path d="M16124 9151 l1 -826 250 -3 251 -2 -1 827 0 828 -251 1 -251 1 1
-826z"/>
<path d="M16902 9971 c-7 -4 -10 -299 -10 -829 l0 -822 253 0 253 0 1 221 c0
122 2 223 3 224 2 2 95 5 208 8 236 6 317 20 428 75 126 63 210 167 247 312
31 117 24 349 -13 465 -62 193 -196 298 -437 341 -49 9 -920 14 -933 5z m818
-431 c66 -46 89 -103 83 -204 -4 -76 -30 -118 -90 -147 -39 -19 -67 -23 -174
-26 -83 -2 -130 0 -134 7 -6 10 -8 131 -6 339 l1 63 143 -4 c132 -3 145 -5
177 -28z"/>
<path d="M18694 9870 c-26 -58 -59 -132 -74 -165 -15 -33 -50 -112 -78 -175
-27 -63 -61 -141 -76 -172 -14 -31 -26 -59 -26 -61 0 -3 -15 -38 -34 -79 -19
-40 -105 -233 -191 -428 -86 -195 -167 -379 -181 -409 -13 -29 -24 -55 -24
-57 0 -3 122 -3 271 -2 l271 3 52 115 52 115 304 0 304 0 52 -118 c41 -95 50
-125 45 -150 -7 -35 -7 -50 3 -127 13 -97 79 -192 168 -239 108 -59 316 -50
430 17 15 9 28 20 28 25 0 12 -102 217 -107 217 -2 0 -14 -5 -26 -11 -27 -15
-128 -14 -156 0 -24 13 -36 50 -27 86 9 36 59 57 152 64 l81 6 -59 135 c-32
74 -65 149 -72 165 -8 17 -75 170 -151 340 -75 171 -146 330 -157 355 -11 25
-36 81 -55 125 -56 128 -103 235 -134 302 -15 35 -44 100 -64 145 l-35 83
-220 0 -219 1 -47 -106z m349 -730 l75 -195 -79 -3 c-43 -2 -114 -2 -157 0
l-79 3 76 202 c42 111 79 199 83 195 3 -4 40 -95 81 -202z"/>
<path d="M5133 7394 c-17 -8 -44 -30 -60 -50 -23 -31 -28 -46 -27 -90 2 -64
27 -104 81 -129 30 -15 66 -18 180 -19 l142 -1 72 -125 c107 -188 170 -279
240 -345 34 -33 77 -75 95 -92 38 -39 53 -40 111 -12 71 34 140 30 187 -11 58
-51 67 -89 61 -263 -5 -167 2 -195 63 -260 26 -29 166 -137 176 -137 3 0 24
-13 48 -28 24 -16 68 -45 99 -65 30 -20 102 -81 159 -134 135 -128 201 -179
279 -216 115 -54 182 -40 265 55 25 29 46 56 46 60 0 5 3 8 8 8 4 0 9 -30 10
-67 5 -127 33 -193 113 -268 67 -63 210 -157 303 -200 101 -47 302 -104 491
-141 18 -3 164 -45 267 -77 61 -18 84 17 104 158 4 28 7 56 7 63 0 6 4 12 7
12 8 0 11 -7 56 -130 35 -98 79 -141 171 -171 60 -19 95 -22 288 -24 198 -2
280 -9 475 -41 66 -11 239 -12 282 -2 74 17 128 50 182 111 l52 58 54 -81
c116 -171 220 -197 446 -109 204 78 230 87 264 93 19 3 58 10 85 15 28 5 70
12 95 16 216 30 375 132 372 237 0 16 0 28 2 28 1 0 18 -14 37 -31 19 -17 60
-44 93 -60 49 -23 68 -27 116 -24 85 7 202 60 330 150 42 30 172 109 290 176
118 67 229 132 245 144 153 110 173 134 182 213 3 29 -1 74 -11 111 -9 35 -16
64 -16 67 0 2 28 -17 63 -42 213 -159 364 -134 619 101 76 71 106 94 253 196
72 50 156 116 188 147 63 62 117 139 120 170 1 18 3 18 49 -6 87 -45 158 -27
224 57 86 111 106 197 71 306 -6 18 -2 20 41 20 29 0 66 9 95 24 52 25 127 94
127 116 0 7 4 15 8 17 12 4 62 132 67 168 7 58 17 66 94 67 38 1 80 7 93 14
122 64 103 251 -28 279 -22 4 -2206 8 -4854 7 -3950 0 -4821 -3 -4847 -13z
m1041 -311 c-41 -35 -74 -56 -78 -52 -1 2 -12 20 -24 39 l-21 36 76 0 76 1
-29 -24z m623 -57 c129 -156 284 -310 483 -480 159 -136 440 -317 670 -431
115 -58 322 -145 343 -145 7 0 18 -4 26 -9 12 -7 8 -21 -18 -75 -29 -60 -33
-65 -54 -56 -12 5 -74 28 -137 51 -368 135 -627 279 -861 481 -127 108 -341
333 -472 493 -25 31 -126 157 -144 180 -9 11 -26 31 -39 45 l-23 25 80 1 80 1
66 -81z m608 -3 c66 -45 224 -158 350 -252 383 -286 541 -399 668 -479 31 -20
57 -40 57 -45 0 -10 -79 -167 -85 -167 -2 0 -56 20 -118 44 -408 158 -795 409
-1156 751 -100 95 -210 213 -211 226 0 3 84 5 188 5 l187 -2 120 -81z m350 21
c50 -34 158 -103 240 -154 220 -136 279 -175 393 -262 152 -115 230 -162 368
-221 71 -30 229 -80 294 -92 14 -3 36 -7 51 -10 119 -26 275 -33 634 -29 209
3 403 6 430 8 74 5 216 17 245 21 14 2 50 6 80 9 30 4 66 9 80 11 14 3 41 7
60 10 19 3 46 7 60 10 28 5 65 11 125 20 23 3 52 8 65 10 14 3 63 12 110 21
236 42 300 66 471 181 146 97 250 158 434 253 253 131 262 136 374 215 l86 60
118 1 c64 0 117 -3 117 -6 0 -6 -43 -38 -101 -75 -9 -5 -101 -67 -205 -136
-335 -223 -743 -458 -942 -543 -74 -32 -225 -79 -287 -91 -126 -23 -210 -31
-300 -29 -244 6 -333 6 -360 1 -16 -4 -46 -9 -65 -12 -19 -4 -53 -10 -75 -15
-22 -5 -60 -11 -85 -15 -25 -3 -61 -10 -80 -15 -19 -5 -55 -11 -80 -14 -25 -3
-54 -8 -65 -10 -11 -2 -45 -7 -75 -11 -30 -4 -64 -9 -75 -11 -94 -18 -433 -24
-560 -11 -66 7 -90 10 -160 22 -271 46 -487 156 -885 454 -157 117 -380 277
-600 430 -66 46 -120 85 -120 86 0 1 44 2 98 1 l98 -1 89 -61z m581 -125 c289
-192 311 -206 406 -257 66 -36 225 -96 283 -108 22 -4 42 -8 45 -9 25 -7 133
-17 183 -17 1121 13 1165 15 1362 48 91 15 267 58 285 69 6 3 18 8 27 10 30 6
201 73 318 125 249 110 386 185 500 271 l70 53 148 1 c81 1 147 0 147 -2 0 -4
-181 -108 -285 -163 -147 -78 -270 -147 -361 -206 -157 -101 -306 -166 -474
-208 -109 -26 -122 -29 -230 -46 -36 -6 -76 -13 -90 -15 -42 -7 -112 -16 -330
-40 -19 -2 -73 -7 -120 -10 -47 -4 -105 -8 -130 -10 -25 -2 -85 -7 -135 -10
-49 -4 -108 -9 -130 -10 -302 -25 -548 -25 -675 0 -14 3 -36 7 -50 10 -14 3
-41 8 -60 11 -68 12 -242 74 -323 116 -45 24 -122 74 -172 112 -192 146 -275
207 -420 303 -82 55 -163 107 -180 116 -16 9 -41 25 -54 36 l-25 19 96 -2 96
-2 278 -185z m314 163 c51 -19 142 -47 186 -57 11 -2 80 -17 154 -34 74 -17
151 -33 170 -36 46 -8 212 -48 330 -81 179 -49 267 -59 525 -59 287 1 565 26
785 70 14 3 36 7 50 10 114 21 328 100 450 167 71 39 80 41 168 43 50 2 92 0
92 -4 0 -21 -298 -172 -515 -261 -82 -33 -159 -65 -170 -70 -56 -24 -243 -75
-315 -86 -14 -2 -61 -9 -105 -15 -48 -7 -267 -14 -545 -17 -885 -9 -830 -11
-965 29 -95 28 -203 86 -338 180 -61 43 -159 111 -217 150 -58 39 -111 77
-118 84 -11 9 22 12 155 10 143 -2 176 -5 223 -23z m2400 17 c0 -14 -283 -91
-380 -104 -25 -3 -56 -8 -70 -10 -34 -7 -80 -12 -172 -20 -42 -4 -96 -9 -120
-11 -93 -10 -485 -13 -528 -4 -25 4 -65 11 -90 15 -25 3 -153 33 -285 65 -132
33 -260 63 -285 67 -25 5 397 9 943 9 543 -1 987 -3 987 -7z m1899 2 c8 -2
-199 -202 -293 -284 -214 -186 -519 -399 -806 -562 -212 -121 -356 -184 -540
-238 -136 -41 -448 -107 -467 -100 -6 3 -14 12 -16 21 -3 10 -5 7 -6 -8 -1
-17 -7 -26 -19 -27 -11 -1 -59 -11 -108 -23 -49 -12 -100 -24 -114 -26 -14 -3
-38 -9 -55 -14 -16 -5 -84 -21 -150 -35 -372 -81 -654 -79 -1025 5 -52 12
-102 23 -110 25 -50 10 -770 221 -775 227 -6 6 37 168 45 168 4 0 23 -11 43
-24 112 -77 376 -174 542 -201 220 -36 397 -46 555 -31 65 6 100 11 215 31 11
2 31 6 45 9 14 3 36 8 50 10 14 3 102 21 195 40 229 47 233 47 450 51 191 4
363 13 374 19 3 2 24 7 46 10 188 30 448 123 665 238 164 88 184 99 230 128
25 16 59 37 75 46 86 49 713 478 735 504 3 3 17 15 32 26 23 18 39 21 105 19
43 -2 80 -3 82 -4z m409 -20 c18 -38 15 -46 -24 -77 -20 -16 -42 -34 -48 -39
-6 -6 -31 -26 -56 -45 -25 -19 -52 -41 -60 -47 -127 -105 -402 -303 -625 -451
-263 -174 -438 -297 -565 -399 -30 -24 -62 -50 -70 -56 -270 -216 -445 -302
-753 -371 -169 -38 -214 -42 -221 -19 -60 199 -61 211 -16 214 62 4 282 54
420 96 437 132 930 424 1405 832 22 19 119 114 215 211 l175 176 106 0 c103 1
105 0 117 -25z m464 -25 c-56 -62 -180 -186 -185 -186 -6 0 -107 127 -107 134
0 4 22 28 50 55 l49 48 120 -1 120 0 -47 -50z m-7366 -19 c16 -18 56 -64 89
-102 33 -39 64 -75 70 -81 5 -6 21 -24 34 -40 30 -36 74 -86 165 -189 97 -110
320 -332 381 -380 28 -22 52 -43 55 -46 13 -16 235 -162 321 -212 135 -77 319
-164 491 -232 l147 -57 -30 -58 -30 -59 -57 31 c-31 17 -121 66 -199 109 -150
83 -301 160 -448 229 -531 250 -651 335 -940 665 -81 92 -197 210 -239 243
-16 12 -27 24 -25 27 27 31 175 184 180 184 3 1 19 -14 35 -32z m7023 -196
l40 -78 -62 -55 c-34 -29 -82 -69 -107 -88 -25 -19 -47 -37 -50 -40 -3 -3 -25
-21 -50 -40 -25 -19 -52 -40 -60 -47 -8 -7 -60 -46 -115 -87 -55 -42 -104 -79
-110 -83 -74 -61 -412 -292 -625 -428 -225 -144 -643 -360 -920 -476 -283
-118 -380 -154 -389 -142 -14 15 -51 157 -44 163 5 4 46 13 93 20 197 30 411
95 571 174 105 52 201 116 381 256 136 105 261 195 663 475 322 224 494 351
634 468 57 48 105 87 107 87 1 0 21 -35 43 -79z m-4939 -949 c41 -11 131 -37
200 -57 292 -85 584 -159 710 -179 186 -31 276 -39 445 -40 275 -2 363 10 697
95 90 22 171 42 181 44 10 3 27 7 38 10 16 6 19 1 20 -32 0 -21 3 -73 5 -115
l5 -78 -28 -1 c-15 0 -39 -2 -53 -4 -23 -3 -122 -10 -270 -20 -354 -24 -970
-24 -1100 -1 -14 3 -52 8 -84 11 -168 17 -481 97 -728 186 -62 22 -125 44
-140 49 -15 5 -32 11 -37 14 -8 5 1 55 25 135 2 7 12 11 22 8 9 -2 51 -14 92
-25z m-126 -259 c3 -4 12 -8 19 -10 7 -1 120 -34 252 -73 213 -62 396 -108
493 -125 17 -3 47 -8 65 -11 33 -6 40 -7 140 -19 32 -3 66 -8 76 -10 53 -10
274 -19 481 -19 211 0 505 10 519 18 4 2 47 7 96 10 50 4 101 9 115 11 14 3
54 7 89 10 35 3 69 7 75 8 12 2 23 -85 22 -167 l-1 -49 -55 -18 c-54 -18 -236
-63 -295 -74 -16 -2 -41 -7 -55 -10 -127 -26 -505 -26 -639 0 -12 2 -42 6 -65
9 -45 5 -179 29 -266 46 -30 6 -65 13 -77 16 -13 2 -33 6 -45 9 -13 2 -36 7
-53 10 -420 84 -975 260 -975 310 0 9 7 42 17 75 13 50 20 60 38 60 12 0 25
-3 29 -7z"/>
</g>
</svg>
